HIERARCHY
ROOT Hips
{
  OFFSET 39.8185 101.877 19.8946
  CHANNELS 6 Xposition Yposition Zposition Zrotation Xrotation Yrotation
  JOINT RightUpLeg
  {
    OFFSET -8.9458 -8.66707 0.101652
    CHANNELS 3 Zrotation Xrotation Yrotation
    JOINT RightLeg
    {
      OFFSET 0 -44.4227 1.3727
      CHANNELS 3 Zrotation Xrotation Yrotation
      JOINT RightFoot
      {
        OFFSET 0.253549 -42.0924 -1.46059
        CHANNELS 3 Zrotation Xrotation Yrotation
        JOINT RightToes
        {
          OFFSET 0.04 -4.41509 8.4991
          CHANNELS 3 Zrotation Xrotation Yrotation
          End Site
          {
            OFFSET -0.08 -0.137448 9.77979
          }
        }
      }
    }
  }
  JOINT Spine
  {
    OFFSET 0 11.8905 0
    CHANNELS 3 Zrotation Xrotation Yrotation
    JOINT Spine1
    {
      OFFSET 0 25.6574 0.127663
      CHANNELS 3 Zrotation Xrotation Yrotation
      JOINT HEad
      {
        OFFSET 0 8.73416 0.011341
        CHANNELS 3 Zrotation Xrotation Yrotation
        End Site
        {
          OFFSET -0.29 12.7742 2.51395
        }
      }
      JOINT LeftShoulder1
      {
        OFFSET 8.99 -0.362252 -0.22
        CHANNELS 3 Zrotation Xrotation Yrotation
        JOINT LeftArm
        {
          OFFSET 10.2827 -0.00338 0.322123
          CHANNELS 3 Zrotation Xrotation Yrotation
          JOINT LeftForeArm
          {
            OFFSET 32.7669 0.099144 -1.42434
            CHANNELS 3 Zrotation Xrotation Yrotation
            JOINT LeftHand
            {
              OFFSET 27.5643 0.085362 1.02216
              CHANNELS 3 Zrotation Xrotation Yrotation
              End Site
              {
                OFFSET 16.7443 -0.6 1.50291
              }
            }
          }
        }
      }
      JOINT RightShoulder
      {
        OFFSET -8.99 -0.362252 -0.22
        CHANNELS 3 Zrotation Xrotation Yrotation
        JOINT RightArm
        {
          OFFSET -10.2827 -0.00338 0.322123
          CHANNELS 3 Zrotation Xrotation Yrotation
          JOINT RightForeArm
          {
            OFFSET -32.8971 0.099144 -1.42434
            CHANNELS 3 Zrotation Xrotation Yrotation
            JOINT RightHand
            {
              OFFSET -27.4921 0.085362 1.02216
              CHANNELS 3 Zrotation Xrotation Yrotation
              End Site
              {
                OFFSET -16.6312 -0.6 1.50291
              }
            }
          }
        }
      }
    }
  }
  JOINT LeftUpLeg
  {
    OFFSET 8.9458 -8.66707 0.101652
    CHANNELS 3 Zrotation Xrotation Yrotation
    JOINT LeftLeg
    {
      OFFSET 0 -44.4227 1.3727
      CHANNELS 3 Zrotation Xrotation Yrotation
      JOINT LeftFoot
      {
        OFFSET -0.253549 -42.0924 -1.46059
        CHANNELS 3 Zrotation Xrotation Yrotation
        JOINT LeftToes
        {
          OFFSET -0.04 -4.41509 8.4991
          CHANNELS 3 Zrotation Xrotation Yrotation
          End Site
          {
            OFFSET 0.08 -0.047448 9.77979
          }
        }
      }
    }
  }
}
MOTION
Frames:	10
Frame Time:	0.0166667
39.8185 101.877 19.8946 6.37919 -8.18093 27.307 4.17968 -23.1473 21.6486 15.6461 21.8668 -37.6242 -22.175 -10.0331 -3.68018 0.0462048 0.000533403 0.662642 0.53598 14.2443 5.67953 0.030684 0.0326398 -0.0871014 -12.0459 12.8892 26.5202 7.95139e-016 1.59028e-015 -6.36111e-015 107.91 -82.0691 134.721 -35.1181 51.4407 -45.4831 -46.6555 39.154 -21.7382 -16.8931 4.00868 23.0181 -150.306 -16.8356 -176.535 119.783 22.4437 -11.5884 -19.571 24.9504 27.0688 21.6079 4.01517 -14.7357 -52.8217 42.3561 30.7735 15.2719 4.36662 2.47618 -1.34022e-009 1.5601e-007 -4.86739e-009 
39.95 101.668 20.0035 6.46903 -8.07937 27.8117 3.81567 -23.8673 21.6508 16.5268 23.0797 -38.4813 -21.9869 -10.7937 -4.00902 0.0462048 0.000533403 0.662642 0.53598 14.2443 5.67953 0.030684 0.0326398 -0.0871014 -12.0459 12.8892 26.5202 3.97569e-016 1.59028e-015 -3.18055e-015 109.029 -82.2016 135.77 -35.5679 50.7965 -44.5009 -46.5153 39.5939 -21.4845 -16.8931 4.00868 23.0181 -150.306 -16.8356 -176.535 119.783 22.4437 -11.5884 -19.571 24.9504 27.0688 21.7491 3.82026 -14.794 -53.2895 42.594 31.0623 15.644 4.09885 2.18405 -1.34023e-009 1.5601e-007 -4.86739e-009 
40.3184 101.083 20.3086 6.72035 -7.79488 29.2235 2.82812 -25.7153 21.6584 18.8719 26.2049 -40.8848 -21.4043 -12.768 -4.87052 0.0462048 0.000533403 0.662642 0.53598 14.2443 5.67953 0.030684 0.0326398 -0.0871014 -12.0459 12.8892 26.5202 3.97569e-016 1.59028e-015 6.36111e-015 112.356 -82.5585 138.898 -36.6542 48.9496 -41.9172 -46.1483 40.8351 -20.7648 -16.8931 4.00868 23.0181 -150.306 -16.8356 -176.535 119.783 22.4437 -11.5884 -19.571 24.9504 27.0688 22.1455 3.2877 -14.9557 -54.5962 43.2411 31.8666 16.678 3.35058 1.37862 -1.34022e-009 1.5601e-007 -4.86739e-009 
40.8844 100.185 20.7774 7.10567 -7.35773 31.3875 1.37749 -28.1754 21.6659 22.2493 30.4132 -44.596 -20.3709 -15.4618 -6.05378 0.0462048 0.000533403 0.662642 0.53598 14.2443 5.67953 0.030684 0.0326398 -0.0871009 -12.0459 12.8892 26.5202 -3.97569e-016 -7.95139e-016 -0 118.051 -83.0598 144.29 -37.8722 46.0101 -38.3793 -45.6612 42.767 -19.6287 -16.8931 4.00868 23.0181 -150.306 -16.8356 -176.535 119.783 22.4437 -11.5884 -19.571 24.9504 27.0688 22.7592 2.50615 -15.1997 -56.5949 44.1812 33.0881 18.2449 2.20747 0.176763 -1.34023e-009 1.5601e-007 -4.86739e-009 
41.8322 98.9446 21.2687 7.54809 -7.17458 33.4416 0.447296 -30.2449 20.9627 25.2866 34.9797 -47.9621 -22.0914 -17.964 -8.12617 0.0462048 0.000533403 0.662642 1.57284 16.1921 0.0753545 0.0306755 0.0326398 -0.0722807 -12.2229 9.32612 29.5946 -7.95139e-016 0 9.54166e-015 -171.481 -84.1537 -147.585 -38.39 44.5721 -37.9021 -26.3565 52.1633 -25.6942 -17.2159 3.50106 19.1322 -153.119 -18.4438 176.302 120.456 23.761 -10.8448 -21.686 22.753 30.2636 23.3304 1.67433 -15.5738 -58.8531 44.5107 34.9621 20.1015 0.390352 -1.35411 -1.34023e-009 1.5601e-007 -4.86739e-009 
42.8456 97.5508 21.8266 8.15158 -7.00929 36.0621 -0.699801 -32.2937 20.2091 28.865 39.7783 -52.4526 -23.2498 -20.4551 -10.331 0.0462048 0.000533403 0.662642 2.96021 18.3614 -6.33576 0.0306672 0.0326398 -0.0577316 -12.3639 5.51518 33.4016 -7.95139e-016 -3.18055e-015 -0 -136.654 -78.6184 -115.562 -39.7951 42.6035 -36.2363 -47.0414 50.7757 -7.78447 -23.3181 0.866208 24.5067 -148.301 -15.6678 175.925 121.486 24.2165 -10.2971 -16.9813 20.9748 26.9237 24.1892 0.789329 -16.1115 -61.8846 44.9156 37.6436 22.2691 -1.62517 -3.04712 -1.34023e-009 1.5601e-007 -4.86739e-009 
43.9144 96.0567 22.3998 8.88184 -6.88105 39.1037 -1.99232 -34.1326 19.3676 32.8636 44.5212 -57.8553 -23.7788 -22.7498 -12.4984 0.0462048 0.000533403 0.662642 4.79204 20.6973 -13.4777 0.0311976 0.0386998 -0.0516616 -12.3851 1.4404 37.8384 -1.76556e-031 -1.59028e-015 -6.36111e-015 -125.27 -71.4026 -107.775 -41.1188 39.6928 -33.4631 -27.9343 49.656 -17.715 -23.1142 1.20304 18.5744 -154.226 -17.6033 164.218 122.54 24.1678 -9.85657 -19.0812 20.6141 28.7038 25.3193 -0.0590659 -16.8086 -65.4343 45.2382 40.8276 24.6932 -3.80751 -4.78951 -1.34023e-009 1.5601e-007 -4.86738e-009 
45.0376 94.5143 22.9525 9.68914 -6.79694 42.3857 -3.35373 -35.645 18.4353 37.2047 49.0149 -63.9441 -23.662 -24.7413 -14.4763 0.0462048 0.000533403 0.662642 6.57615 22.5554 -19.8576 0.00468234 -0.01315 0.0487698 -11.9101 -1.8602 41.7193 7.95139e-016 1.59028e-015 -0 -116.559 -63.1925 -103.299 -42.3111 36.007 -30.1893 -43.907 57.0779 -0.188318 -22.9528 1.7318 13.6681 -159.484 -18.0861 153.589 123.505 23.868 -9.66914 -16.8089 20.4237 26.7444 26.6938 -0.820999 -17.64 -69.2846 45.3724 44.2129 27.2339 -6.0927 -6.48835 -1.34023e-009 1.5601e-007 -4.86739e-009 
46.2051 92.9759 23.4661 10.524 -6.75606 45.7129 -4.70619 -36.771 17.434 41.8082 53.1212 -70.4742 -22.9563 -26.3777 -16.1507 0.0462048 0.000533403 0.662642 7.96137 23.676 -25.1043 0.000532482 -0.01247 0.05184 -11.1016 -4.14543 45.0941 -7.95139e-016 -1.59028e-015 -0 -109.057 -54.5413 -100.264 -43.5227 31.3913 -27.2318 -33.6705 50.572 -5.40388 -22.7254 2.67028 9.56749 -163.949 -17.6693 144.193 124.252 23.4297 -9.67076 -18.3814 20.8111 27.6715 28.2449 -1.45316 -18.5607 -73.1802 45.2832 47.4894 29.8424 -8.40832 -8.05481 -1.34023e-009 1.5601e-007 -4.86739e-009 
47.3933 91.4954 23.9272 11.3394 -6.76175 48.8868 -5.96435 -37.4958 16.4041 46.5505 56.7428 -77.1645 -21.7929 -27.6467 -17.4591 0.0462048 0.000533403 0.662642 8.90039 24.2561 -29.1781 -0.00151772 -0.00881996 0.04742 -10.1398 -5.51745 47.8222 -7.95139e-016 1.59028e-015 3.18055e-015 -102.952 -45.3944 -98.0676 -45.0328 26.7067 -24.7958 -38.6188 59.4737 5.17171 -22.2523 3.87534 6.41006 -167.638 -16.7971 136.549 124.759 22.9406 -9.88349 -17.2348 21.2735 26.4019 29.8941 -1.9312 -19.5192 -76.8976 45.0043 50.4005 32.3929 -10.6465 -9.42791 -1.34023e-009 1.5601e-007 -4.86738e-009 
